# xmcd
#
# Track frame offsets:
#	150
#	18612
#	31535
#	46349
#	58520
#	75475
#	87440
#	105786
#	118241
#	141262
#
# Disc length: 2227 seconds
#
# Revision: 0
# Processed by: cddbd v1.5.1PL2 Copyright (c) Steve Scherf et al.
# Submitted via: EasyCDDAExtractor 4.6.9.1
#
DISCID=7408b10a
DTITLE=K.T. Oslin - My Roots Are Showing
DYEAR=1996
DGENRE=Country
TTITLE0=Silver Tongue And Gold Plaited Lies
TTITLE1=Sand Mountain Blues
TTITLE2=Hold Whatcha Got
TTITLE3=Tear Time
TTITLE4=(I'll See You In) Cuba
TTITLE5=My Baby Came Back
TTITLE6=Pathway To Teardrops
TTITLE7=Miss The Mississippi And You
TTITLE8=A Heart Needs A Home
TTITLE9=Down In The Valley
EXTD=
EXTT0=
EXTT1=
EXTT2=
EXTT3=
EXTT4=
EXTT5=
EXTT6=
EXTT7=
EXTT8=
EXTT9=
PLAYORDER=
